<?xml version="1.0" encoding="utf-8"?>
<!-- Generator: Adobe Illustrator 24.3.0, SVG Export Plug-In . SVG Version: 6.00 Build 0)  -->
<svg version="1.1" id="Layer_1" xmlns="http://www.w3.org/2000/svg" xmlns:xlink="http://www.w3.org/1999/xlink" x="0px" y="0px"
	 viewBox="0 0 1728 864" style="enable-background:new 0 0 1728 864;" xml:space="preserve">
<style type="text/css">
	.st0{fill:none;stroke:#FF0000;stroke-width:1.000000e-03;stroke-miterlimit:10;}
</style>
<g>
	<polygon class="st0" points="905.2,420.2 905.2,6.2 8.8,6.2 8.8,420.2 68.8,420.2 68.8,438.2 97.6,438.2 97.6,420.2 139.1,420.2 
		139.1,438.2 167.9,438.2 167.9,420.2 209.3,420.2 209.3,438.2 238.1,438.2 238.1,420.2 279.5,420.2 279.5,438.2 308.3,438.2 
		308.3,420.2 349.8,420.2 349.8,438.2 378.6,438.2 378.6,420.2 420,420.2 420,438.2 448.8,438.2 448.8,420.2 490.2,420.2 
		490.2,438.2 519,438.2 519,420.2 560.4,420.2 560.4,438.2 589.2,438.2 589.2,420.2 630.7,420.2 630.7,438.2 659.5,438.2 
		659.5,420.2 700.9,420.2 700.9,438.2 729.7,438.2 729.7,420.2 771.1,420.2 771.1,438.2 799.9,438.2 799.9,420.2 841.4,420.2 
		841.4,438.2 870.2,438.2 870.2,420.2 	"/>
	<g>
		<rect x="15.2" y="31.8" class="st0" width="21.6" height="28.8"/>
		<rect x="15.2" y="113.1" class="st0" width="21.6" height="28.8"/>
		<rect x="15.2" y="275.7" class="st0" width="21.6" height="28.8"/>
		<rect x="15.2" y="357" class="st0" width="21.6" height="28.8"/>
		<rect x="15.2" y="194.4" class="st0" width="21.6" height="28.8"/>
	</g>
</g>
<g>
	<polygon class="st0" points="939.7,442.4 939.7,856.4 43.3,856.4 43.3,442.4 103.3,442.4 103.3,424.4 132.1,424.4 132.1,442.4 
		173.5,442.4 173.5,424.4 202.3,424.4 202.3,442.4 243.8,442.4 243.8,424.4 272.6,424.4 272.6,442.4 314,442.4 314,424.4 
		342.8,424.4 342.8,442.4 384.2,442.4 384.2,424.4 413,424.4 413,442.4 454.5,442.4 454.5,424.4 483.3,424.4 483.3,442.4 
		524.7,442.4 524.7,424.4 553.5,424.4 553.5,442.4 594.9,442.4 594.9,424.4 623.7,424.4 623.7,442.4 665.1,442.4 665.1,424.4 
		693.9,424.4 693.9,442.4 735.4,442.4 735.4,424.4 764.2,424.4 764.2,442.4 805.6,442.4 805.6,424.4 834.4,424.4 834.4,442.4 
		875.8,442.4 875.8,424.4 904.6,424.4 904.6,442.4 	"/>
	<g>
		<rect x="49.7" y="802.1" class="st0" width="21.6" height="28.8"/>
		<rect x="49.7" y="720.8" class="st0" width="21.6" height="28.8"/>
		<rect x="49.7" y="558.2" class="st0" width="21.6" height="28.8"/>
		<rect x="49.7" y="476.9" class="st0" width="21.6" height="28.8"/>
		<rect x="49.7" y="639.5" class="st0" width="21.6" height="28.8"/>
	</g>
</g>
<g>
	<rect x="1179" y="258.2" class="st0" width="108" height="108"/>
	<polyline class="st0" points="1301.5,243.8 1513.5,243.8 1513.5,380.7 1301.5,380.7 	"/>
	<polyline class="st0" points="1164.6,380.7 952.6,380.7 952.6,243.8 1164.6,243.8 	"/>
	<polyline class="st0" points="1301.5,380.7 1301.5,592.7 1164.6,592.7 1164.6,380.7 	"/>
	<polyline class="st0" points="1164.6,243.8 1164.6,31.8 1301.5,31.8 1301.5,243.8 	"/>
</g>
</svg>
