<?xml version="1.0" encoding="utf-8"?>
<!-- Generator: Adobe Illustrator 24.3.0, SVG Export Plug-In . SVG Version: 6.00 Build 0)  -->
<svg version="1.1" id="Layer_1" xmlns="http://www.w3.org/2000/svg" xmlns:xlink="http://www.w3.org/1999/xlink" x="0px" y="0px"
	 viewBox="0 0 1728 864" style="enable-background:new 0 0 1728 864;" xml:space="preserve">
<style type="text/css">
	.st0{fill:none;stroke:#FF0000;stroke-width:1.000000e-03;stroke-miterlimit:10;}
</style>
<polygon class="st0" points="15.5,358.3 865.9,358.3 865.9,345.2 883.9,345.2 883.9,316.4 865.9,316.4 865.9,287.6 883.9,287.6 
	883.9,258.8 865.9,258.8 865.9,230 883.9,230 883.9,201.2 865.9,201.2 865.9,188.2 15.5,188.2 "/>
<polygon class="st0" points="15.5,179.3 865.9,179.3 865.9,166.2 883.9,166.2 883.9,137.4 865.9,137.4 865.9,108.6 883.9,108.6 
	883.9,79.8 865.9,79.8 865.9,51 883.9,51 883.9,22.2 865.9,22.2 865.9,9.2 15.5,9.2 "/>
<g>
	<g>
		<rect x="33.5" y="414.6" class="st0" width="18" height="28.8"/>
		<rect x="33.5" y="529.8" class="st0" width="18" height="28.8"/>
		<rect x="33.5" y="472.2" class="st0" width="18" height="28.8"/>
	</g>
	<g>
		
			<rect x="69.9" y="566.2" transform="matrix(4.491880e-11 -1 1 4.491880e-11 -501.7055 659.5253)" class="st0" width="18" height="28.8"/>
		
			<rect x="185.1" y="566.2" transform="matrix(4.491880e-11 -1 1 4.491880e-11 -386.5055 774.7253)" class="st0" width="18" height="28.8"/>
		
			<rect x="127.5" y="566.2" transform="matrix(4.491880e-11 -1 1 4.491880e-11 -444.1055 717.1252)" class="st0" width="18" height="28.8"/>
		
			<rect x="240" y="566.2" transform="matrix(4.491880e-11 -1 1 4.491880e-11 -331.6271 829.6036)" class="st0" width="18" height="28.8"/>
		
			<rect x="355.2" y="566.2" transform="matrix(4.491880e-11 -1 1 4.491880e-11 -216.4271 944.8036)" class="st0" width="18" height="28.8"/>
		
			<rect x="297.6" y="566.2" transform="matrix(4.491880e-11 -1 1 4.491880e-11 -274.0271 887.2037)" class="st0" width="18" height="28.8"/>
		
			<rect x="410.1" y="566.2" transform="matrix(4.496942e-11 -1 1 4.496942e-11 -161.5487 999.6821)" class="st0" width="18" height="28.8"/>
		
			<rect x="525.3" y="566.2" transform="matrix(4.496942e-11 -1 1 4.496942e-11 -46.3487 1114.8821)" class="st0" width="18" height="28.8"/>
		
			<rect x="467.7" y="566.2" transform="matrix(4.486906e-11 -1 1 4.486906e-11 -103.9487 1057.2821)" class="st0" width="18" height="28.8"/>
		
			<rect x="580.1" y="566.2" transform="matrix(4.486906e-11 -1 1 4.486906e-11 8.5297 1169.7605)" class="st0" width="18" height="28.8"/>
		
			<rect x="695.3" y="566.2" transform="matrix(4.481755e-11 -1 1 4.481755e-11 123.7297 1284.9604)" class="st0" width="18" height="28.8"/>
		
			<rect x="637.7" y="566.2" transform="matrix(4.496942e-11 -1 1 4.496942e-11 66.1297 1227.3605)" class="st0" width="18" height="28.8"/>
		
			<rect x="750.2" y="566.2" transform="matrix(4.486906e-11 -1 1 4.486906e-11 178.6081 1339.8389)" class="st0" width="18" height="28.8"/>
		
			<rect x="865.4" y="566.2" transform="matrix(4.486906e-11 -1 1 4.486906e-11 293.8081 1455.0388)" class="st0" width="18" height="28.8"/>
		
			<rect x="807.8" y="566.2" transform="matrix(4.486906e-11 -1 1 4.486906e-11 236.2081 1397.4388)" class="st0" width="18" height="28.8"/>
	</g>
	
		<rect x="69.9" y="378.1" transform="matrix(4.491855e-11 1 -1 4.491855e-11 471.4469 313.6271)" class="st0" width="18" height="28.8"/>
	
		<rect x="185.1" y="378.1" transform="matrix(4.491855e-11 1 -1 4.491855e-11 586.6469 198.4271)" class="st0" width="18" height="28.8"/>
	
		<rect x="127.5" y="378.1" transform="matrix(4.491855e-11 1 -1 4.491855e-11 529.0469 256.0271)" class="st0" width="18" height="28.8"/>
	
		<rect x="240" y="378.1" transform="matrix(4.491855e-11 1 -1 4.491855e-11 641.5253 143.5487)" class="st0" width="18" height="28.8"/>
	
		<rect x="355.2" y="378.1" transform="matrix(4.491855e-11 1 -1 4.491855e-11 756.7253 28.3487)" class="st0" width="18" height="28.8"/>
	
		<rect x="297.6" y="378.1" transform="matrix(4.491855e-11 1 -1 4.491855e-11 699.1252 85.9487)" class="st0" width="18" height="28.8"/>
	
		<rect x="410.1" y="378.1" transform="matrix(4.496918e-11 1 -1 4.496918e-11 811.6036 -26.5297)" class="st0" width="18" height="28.8"/>
	
		<rect x="525.3" y="378.1" transform="matrix(4.496918e-11 1 -1 4.496918e-11 926.8036 -141.7297)" class="st0" width="18" height="28.8"/>
	
		<rect x="467.7" y="378.1" transform="matrix(4.486881e-11 1 -1 4.486881e-11 869.2037 -84.1297)" class="st0" width="18" height="28.8"/>
	
		<rect x="580.1" y="378.1" transform="matrix(4.486881e-11 1 -1 4.486881e-11 981.6821 -196.6081)" class="st0" width="18" height="28.8"/>
	
		<rect x="695.3" y="378.1" transform="matrix(4.481730e-11 1 -1 4.481730e-11 1096.8821 -311.8081)" class="st0" width="18" height="28.8"/>
	
		<rect x="637.7" y="378.1" transform="matrix(4.496918e-11 1 -1 4.496918e-11 1039.2821 -254.2081)" class="st0" width="18" height="28.8"/>
	
		<rect x="750.2" y="378.1" transform="matrix(4.486881e-11 1 -1 4.486881e-11 1151.7605 -366.6865)" class="st0" width="18" height="28.8"/>
	
		<rect x="865.4" y="378.1" transform="matrix(4.486881e-11 1 -1 4.486881e-11 1266.9604 -481.8865)" class="st0" width="18" height="28.8"/>
	
		<rect x="807.8" y="378.1" transform="matrix(4.486881e-11 1 -1 4.486881e-11 1209.3605 -424.2865)" class="st0" width="18" height="28.8"/>
	<polygon class="st0" points="15.5,365.5 15.5,607.6 919.9,607.6 919.9,589.6 901.9,589.6 901.9,571.6 901.9,558.6 919.9,558.6 
		919.9,529.8 901.9,529.8 901.9,501 919.9,501 919.9,472.2 901.9,472.2 901.9,443.4 919.9,443.4 919.9,414.6 901.9,414.6 
		901.9,383.5 932.8,383.5 932.8,365.5 901.9,365.5 	"/>
</g>
<g>
	<g>
		<rect x="33.5" y="664.6" class="st0" width="18" height="28.8"/>
		<rect x="33.5" y="779.8" class="st0" width="18" height="28.8"/>
		<rect x="33.5" y="722.2" class="st0" width="18" height="28.8"/>
	</g>
	<g>
		
			<rect x="69.9" y="816.2" transform="matrix(4.491880e-11 -1 1 4.491880e-11 -751.7055 909.5253)" class="st0" width="18" height="28.8"/>
		
			<rect x="185.1" y="816.2" transform="matrix(4.491880e-11 -1 1 4.491880e-11 -636.5056 1024.7252)" class="st0" width="18" height="28.8"/>
		
			<rect x="127.5" y="816.2" transform="matrix(4.491880e-11 -1 1 4.491880e-11 -694.1055 967.1252)" class="st0" width="18" height="28.8"/>
		
			<rect x="240" y="816.2" transform="matrix(4.491880e-11 -1 1 4.491880e-11 -581.6271 1079.6036)" class="st0" width="18" height="28.8"/>
		
			<rect x="355.2" y="816.2" transform="matrix(4.491880e-11 -1 1 4.491880e-11 -466.4271 1194.8037)" class="st0" width="18" height="28.8"/>
		
			<rect x="297.6" y="816.2" transform="matrix(4.491880e-11 -1 1 4.491880e-11 -524.0271 1137.2036)" class="st0" width="18" height="28.8"/>
		
			<rect x="410.1" y="816.2" transform="matrix(4.496942e-11 -1 1 4.496942e-11 -411.5487 1249.682)" class="st0" width="18" height="28.8"/>
		
			<rect x="525.3" y="816.2" transform="matrix(4.496942e-11 -1 1 4.496942e-11 -296.3487 1364.8821)" class="st0" width="18" height="28.8"/>
		
			<rect x="467.7" y="816.2" transform="matrix(4.486906e-11 -1 1 4.486906e-11 -353.9487 1307.2821)" class="st0" width="18" height="28.8"/>
		
			<rect x="580.1" y="816.2" transform="matrix(4.486906e-11 -1 1 4.486906e-11 -241.4703 1419.7605)" class="st0" width="18" height="28.8"/>
		
			<rect x="695.3" y="816.2" transform="matrix(4.481755e-11 -1 1 4.481755e-11 -126.2703 1534.9604)" class="st0" width="18" height="28.8"/>
		
			<rect x="637.7" y="816.2" transform="matrix(4.496942e-11 -1 1 4.496942e-11 -183.8703 1477.3605)" class="st0" width="18" height="28.8"/>
		
			<rect x="750.2" y="816.2" transform="matrix(4.486906e-11 -1 1 4.486906e-11 -71.3919 1589.8389)" class="st0" width="18" height="28.8"/>
		
			<rect x="865.4" y="816.2" transform="matrix(4.486906e-11 -1 1 4.486906e-11 43.8081 1705.0388)" class="st0" width="18" height="28.8"/>
		
			<rect x="807.8" y="816.2" transform="matrix(4.486906e-11 -1 1 4.486906e-11 -13.7919 1647.4388)" class="st0" width="18" height="28.8"/>
	</g>
	
		<rect x="69.9" y="628.1" transform="matrix(4.491855e-11 1 -1 4.491855e-11 721.4468 563.6271)" class="st0" width="18" height="28.8"/>
	
		<rect x="185.1" y="628.1" transform="matrix(4.491855e-11 1 -1 4.491855e-11 836.6469 448.4271)" class="st0" width="18" height="28.8"/>
	
		<rect x="127.5" y="628.1" transform="matrix(4.491855e-11 1 -1 4.491855e-11 779.0469 506.0271)" class="st0" width="18" height="28.8"/>
	
		<rect x="240" y="628.1" transform="matrix(4.491855e-11 1 -1 4.491855e-11 891.5253 393.5487)" class="st0" width="18" height="28.8"/>
	
		<rect x="355.2" y="628.1" transform="matrix(4.491855e-11 1 -1 4.491855e-11 1006.7253 278.3487)" class="st0" width="18" height="28.8"/>
	
		<rect x="297.6" y="628.1" transform="matrix(4.491855e-11 1 -1 4.491855e-11 949.1252 335.9487)" class="st0" width="18" height="28.8"/>
	
		<rect x="410.1" y="628.1" transform="matrix(4.496918e-11 1 -1 4.496918e-11 1061.6036 223.4703)" class="st0" width="18" height="28.8"/>
	
		<rect x="525.3" y="628.1" transform="matrix(4.496918e-11 1 -1 4.496918e-11 1176.8037 108.2703)" class="st0" width="18" height="28.8"/>
	
		<rect x="467.7" y="628.1" transform="matrix(4.486881e-11 1 -1 4.486881e-11 1119.2036 165.8703)" class="st0" width="18" height="28.8"/>
	
		<rect x="580.1" y="628.1" transform="matrix(4.486881e-11 1 -1 4.486881e-11 1231.682 53.3919)" class="st0" width="18" height="28.8"/>
	
		<rect x="695.3" y="628.1" transform="matrix(4.481730e-11 1 -1 4.481730e-11 1346.8821 -61.8081)" class="st0" width="18" height="28.8"/>
	
		<rect x="637.7" y="628.1" transform="matrix(4.496918e-11 1 -1 4.496918e-11 1289.2821 -4.2081)" class="st0" width="18" height="28.8"/>
	
		<rect x="750.2" y="628.1" transform="matrix(4.486881e-11 1 -1 4.486881e-11 1401.7605 -116.6865)" class="st0" width="18" height="28.8"/>
	
		<rect x="865.4" y="628.1" transform="matrix(4.486881e-11 1 -1 4.486881e-11 1516.9604 -231.8865)" class="st0" width="18" height="28.8"/>
	
		<rect x="807.8" y="628.1" transform="matrix(4.486881e-11 1 -1 4.486881e-11 1459.3605 -174.2865)" class="st0" width="18" height="28.8"/>
	<polygon class="st0" points="15.5,615.5 15.5,857.6 919.9,857.6 919.9,839.6 901.9,839.6 901.9,821.6 901.9,808.6 919.9,808.6 
		919.9,779.8 901.9,779.8 901.9,751 919.9,751 919.9,722.2 901.9,722.2 901.9,693.4 919.9,693.4 919.9,664.6 901.9,664.6 
		901.9,633.5 932.8,633.5 932.8,615.5 901.9,615.5 	"/>
</g>
<polygon class="st0" points="1168.3,199.1 1150.3,199.1 1150.3,170.3 1168.3,170.3 1168.3,141.5 1150.3,141.5 1150.3,112.7 
	1168.3,112.7 1168.3,83.9 1150.3,83.9 1150.3,55.1 1168.3,55.1 1168.2,24.1 1137.3,24.1 1137.3,42.1 1108.5,42.1 1108.5,24.1 
	1079.7,24.1 1079.7,42.1 1050.9,42.1 1050.9,24.1 1022.1,24.1 1022.1,42.1 993.3,42.1 993.3,24.1 962.4,24.1 962.2,55.1 980.2,55.1 
	980.2,83.9 962.2,83.9 962.2,112.7 980.2,112.7 980.2,141.5 962.2,141.5 962.2,170.3 980.2,170.3 980.2,199.1 962.2,199.1 
	962.4,230.2 993.3,230.2 993.3,212.2 1022.1,212.2 1022.1,230.2 1050.9,230.2 1050.9,212.2 1079.7,212.2 1079.7,230.2 1108.5,230.2 
	1108.5,212.2 1137.3,212.2 1137.3,230.2 1168.2,230.2 "/>
<polygon class="st0" points="1168.3,441.1 1150.3,441.1 1150.3,412.3 1168.3,412.3 1168.3,383.5 1150.3,383.5 1150.3,354.7 
	1168.3,354.7 1168.3,325.9 1150.3,325.9 1150.3,297.1 1168.3,297.1 1168.2,266.1 1137.3,266.1 1137.3,284.1 1108.5,284.1 
	1108.5,266.1 1079.7,266.1 1079.7,284.1 1050.9,284.1 1050.9,266.1 1022.1,266.1 1022.1,284.1 993.3,284.1 993.3,266.1 962.4,266.1 
	962.2,297.1 980.2,297.1 980.2,325.9 962.2,325.9 962.2,354.7 980.2,354.7 980.2,383.5 962.2,383.5 962.2,412.3 980.2,412.3 
	980.2,441.1 962.2,441.1 962.4,472.2 993.3,472.2 993.3,454.2 1022.1,454.2 1022.1,472.2 1050.9,472.2 1050.9,454.2 1079.7,454.2 
	1079.7,472.2 1108.5,472.2 1108.5,454.2 1137.3,454.2 1137.3,472.2 1168.2,472.2 "/>
<g>
	<polyline class="st0" points="1386.7,383.1 1386.7,330.6 1404.7,330.6 1404.7,301.8 1386.7,301.8 1386.7,249.3 1404.7,249.3 
		1404.7,220.5 1386.7,220.5 1386.7,168 1404.7,168 1404.7,139.2 1386.7,139.2 1386.7,86.7 1404.7,86.7 1404.7,57.9 1386.7,57.9 
		1386.7,32.4 1216.6,32.4 1216.6,57.9 1198.6,57.9 1198.6,86.7 1216.6,86.7 1216.6,139.2 1198.6,139.2 1198.6,168 1216.6,168 
		1216.6,220.5 1198.6,220.5 1198.6,249.3 1216.6,249.3 1216.6,301.8 1198.6,301.8 1198.6,330.6 1216.6,330.6 1216.6,383.1 	"/>
	<polyline class="st0" points="1216.6,383.1 1198.6,383.1 1198.6,411.9 1216.6,411.9 1216.6,446.4 1229.7,446.4 1229.7,464.4 
		1258.5,464.4 1258.5,446.4 1287.3,446.4 1287.3,446.4 1287.3,464.4 1316.1,464.4 1316.1,446.4 1344.9,446.4 1344.9,464.4 
		1373.7,464.4 1373.7,446.4 1386.7,446.4 1386.7,411.9 	"/>
	<path class="st0" d="M1216.6,411.9"/>
	<path class="st0" d="M1216.6,383.1"/>
	<polyline class="st0" points="1386.7,383.1 1404.7,383.1 1404.7,411.9 1386.7,411.9 	"/>
	<path class="st0" d="M1386.7,383.1"/>
	<path class="st0" d="M1386.7,411.9"/>
</g>
<g>
	<polyline class="st0" points="1609.7,383.1 1609.7,330.6 1627.7,330.6 1627.7,301.8 1609.7,301.8 1609.7,249.3 1627.7,249.3 
		1627.7,220.5 1609.7,220.5 1609.7,168 1627.7,168 1627.7,139.2 1609.7,139.2 1609.7,86.7 1627.7,86.7 1627.7,57.9 1609.7,57.9 
		1609.7,32.4 1439.6,32.4 1439.6,57.9 1421.6,57.9 1421.6,86.7 1439.6,86.7 1439.6,139.2 1421.6,139.2 1421.6,168 1439.6,168 
		1439.6,220.5 1421.6,220.5 1421.6,249.3 1439.6,249.3 1439.6,301.8 1421.6,301.8 1421.6,330.6 1439.6,330.6 1439.6,383.1 	"/>
	<polyline class="st0" points="1439.6,383.1 1421.6,383.1 1421.6,411.9 1439.6,411.9 1439.6,446.4 1452.6,446.4 1452.6,464.4 
		1481.4,464.4 1481.4,446.4 1510.2,446.4 1510.2,446.4 1510.2,464.4 1539,464.4 1539,446.4 1567.8,446.4 1567.8,464.4 1596.6,464.4 
		1596.6,446.4 1609.7,446.4 1609.7,411.9 	"/>
	<path class="st0" d="M1439.6,411.9"/>
	<path class="st0" d="M1439.6,383.1"/>
	<polyline class="st0" points="1609.7,383.1 1627.7,383.1 1627.7,411.9 1609.7,411.9 	"/>
	<path class="st0" d="M1609.7,383.1"/>
	<path class="st0" d="M1609.7,411.9"/>
</g>
<g>
	<rect x="976.7" y="517.6" class="st0" width="108" height="108"/>
	<rect x="962.2" y="503.2" class="st0" width="136.9" height="136.9"/>
</g>
<g>
	<rect x="1136.7" y="517.6" class="st0" width="108" height="108"/>
	<rect x="1122.2" y="503.2" class="st0" width="136.9" height="136.9"/>
</g>
<g>
	<rect x="1296.7" y="517.6" class="st0" width="108" height="108"/>
	<rect x="1282.2" y="503.2" class="st0" width="136.9" height="136.9"/>
</g>
<g>
	<rect x="1445.7" y="517.6" class="st0" width="108" height="108"/>
	<rect x="1431.2" y="503.2" class="st0" width="136.9" height="136.9"/>
</g>
<g>
	<rect x="1596.7" y="517.6" class="st0" width="108" height="108"/>
	<rect x="1582.2" y="503.2" class="st0" width="136.9" height="136.9"/>
</g>
</svg>
